<svg xmlns="http://www.w3.org/2000/svg" width="65" height="46" stroke="#000" stroke-linecap="round" stroke-linejoin="round" fill="#fff" fill-rule="evenodd"><path d="M49.487 3.872c-6.86.033-12.074 4.57-14.026 11.8-3.275-5.04-5.83-10.805-7.295-15.672l-7.22.034.1 19.138c.0179 3.7892-3.0393 6.8756-6.8285 6.8935S7.3419 23.0262 7.324 19.237L7.224.099 0 .134.1 19.273c.028 7.942 6.374 14.235 14.14 14.195s14.055-6.386 14.02-14.33l-.015-3.25c1.456 2.88 3.276 5.94 5.276 8.64l-4.415 21.144 7.4-.034 3.18-15.362c2.896 1.793 6.15 2.86 9.94 2.842C57.57 33.083 64.04 26.555 64 18.248c-.036-7.946-6.568-14.413-14.512-14.377zm.103 21.846c-2.888.013-5.782-1.236-8.138-3.213l.708-2.9v-.182c.528-3.074 2.126-8.316 7.542-8.34 3.984-.0073 7.2262 3.2041 7.257 7.188-.163 4.153-3.577 7.42-7.37 7.437z" stroke="none" fill-rule="nonzero"/></svg>